<?xml version="1.0" encoding="UTF-8"?>
<svg id="Livello_1" data-name="Livello 1" xmlns="http://www.w3.org/2000/svg" version="1.1" viewBox="0 0 512 512">
  <defs>
    <style>
      .cls-1 {
        fill: #fff;
        stroke-width: 0px;
      }
    </style>
  </defs>
  <path class="cls-1" d="M256,512C114.8,512,0,397.2,0,256S114.8,0,256,0s256,114.8,256,256-114.8,256-256,256ZM256,46.5c-115.5,0-209.5,94-209.5,209.5s94,209.5,209.5,209.5,209.5-94,209.5-209.5S371.5,46.5,256,46.5Z"/>
  <path class="cls-1" d="M256.2,162.9c-12.9,0-23.4-10.4-23.4-23.3s10.3-23.3,23.2-23.3h.2c12.9,0,23.3,10.4,23.3,23.3s-10.4,23.3-23.3,23.3Z"/>
  <path class="cls-1" d="M256,372.4c-12.9,0-23.3-10.4-23.3-23.3v-93.1h-23.3c-12.9,0-23.3-10.4-23.3-23.3s10.4-23.3,23.3-23.3h46.5c12.9,0,23.3,10.4,23.3,23.3v116.4c0,12.9-10.4,23.3-23.3,23.3Z"/>
  <path class="cls-1" d="M302.5,372.4h-93.1c-12.9,0-23.3-10.4-23.3-23.3s10.4-23.3,23.3-23.3h93.1c12.9,0,23.3,10.4,23.3,23.3s-10.4,23.3-23.3,23.3Z"/>
</svg>