<?xml version="1.0" encoding="UTF-8"?>
<svg id="Livello_1" data-name="Livello 1" xmlns="http://www.w3.org/2000/svg" version="1.1" viewBox="0 0 1000 1000">
  <defs>
    <style>
      .cls-1 {
        fill: #fff;
        stroke-width: 0px;
      }
    </style>
  </defs>
  <path class="cls-1" d="M863.6,1000H136.4C61.2,1000,0,939.5,0,865.2v-351.8c0-61.6,26-121.1,71.2-163.4L406.3,36.9c52.5-49.1,134.8-49.1,187.4,0l335.1,313.2c45.2,42.3,71.2,101.8,71.2,163.4v351.8c0,74.3-61.2,134.8-136.4,134.8ZM500,89.9c-11.2,0-22.5,4.1-31.2,12.3L133.6,415.4c-27.2,25.4-42.7,61.1-42.7,98v351.8c0,24.8,20.4,44.9,45.5,44.9h727.3c25.1,0,45.5-20.2,45.5-44.9v-351.8c0-36.9-15.6-72.7-42.7-98L531.2,102.2c-8.8-8.2-20-12.3-31.2-12.3Z"/>
</svg>