<?xml version="1.0" encoding="UTF-8"?>
<svg id="Livello_1" data-name="Livello 1" xmlns="http://www.w3.org/2000/svg" version="1.1" viewBox="0 0 983.3 1000">
  <defs>
    <style>
      .cls-1 {
        fill: #fff;
        stroke-width: 0px;
      }
    </style>
  </defs>
  <path class="cls-1" d="M249.9,954.2c-9.6,0-19.2-3-27.5-9.2-20.3-15.2-24.4-43.9-9.2-64.2l275-366.6c8-10.6,20.2-17.3,33.4-18.2,13.3-1,26.2,3.9,35.7,13.3l366.6,366.6c17.9,17.9,17.9,46.9,0,64.8-17.9,17.9-46.9,17.9-64.8,0l-329.3-329.3-243.3,324.4c-9,12-22.8,18.3-36.7,18.3Z"/>
  <path class="cls-1" d="M287.3,660.2c-6.6,0-13.2-1.4-19.3-4.3-11.1-5.2-19.7-14.6-23.8-26.2l-118.5-333.8c-8.4-23.6,3.7-49.5,27.1-58.3L772.9,5.7c35.8-13.4,76.6-2.9,101.6,26.1l8.6,10c64.6,74.9,100.2,170.6,100.2,269.4v28.2c0,38.1-24,72.6-59.6,85.9l-620.4,231.9c-5.2,1.9-10.6,2.9-16.1,2.9ZM227,307.7l87.8,247.4,576.7-215.6v-28.2c0-76.9-27.6-151.3-77.9-209.5l-8.7-10L227,307.7Z"/>
  <path class="cls-1" d="M165.1,652.4c-19.4,0-38.8-4.2-57-12.4-33.4-15.2-58.9-42.6-71.8-77l-28.6-80.6c-25-70.6,11.8-149,82-174.9l77.7-28.6c11.5-4.2,24.2-3.7,35.3,1.5,11.1,5.2,19.6,14.6,23.7,26.2l89.1,250.8c8.4,23.6-3.7,49.5-27.2,58.3l-75.2,28c-15.7,5.8-31.9,8.8-48.2,8.8ZM155.7,380.8l-34.1,12.6c-23.4,8.6-35.7,34.8-27.3,58.3h0l27.8,78.4c4.5,12.2,13,21.3,24.2,26.4,11.2,5.1,23.6,5.5,35.1,1.2l32.9-12.3-58.5-164.6Z"/>
  <path class="cls-1" d="M524.9,1000c-25.3,0-45.8-20.5-45.8-45.8v-412.5c0-25.3,20.5-45.8,45.8-45.8s45.8,20.5,45.8,45.8v412.5c0,25.3-20.5,45.8-45.8,45.8Z"/>
</svg>