<?xml version="1.0" encoding="UTF-8"?>
<svg id="Livello_1" data-name="Livello 1" xmlns="http://www.w3.org/2000/svg" version="1.1" viewBox="0 0 512 512">
  <defs>
    <style>
      .cls-1 {
        fill: #fff;
        stroke-width: 0px;
      }
    </style>
  </defs>
  <path class="cls-1" d="M372.4,442.2h-232.7c-38.5,0-69.8-31.3-69.8-69.8v-232.7c0-38.5,31.3-69.8,69.8-69.8h232.7c38.5,0,69.8,31.3,69.8,69.8v232.7c0,38.5-31.3,69.8-69.8,69.8ZM139.6,116.4c-12.8,0-23.3,10.4-23.3,23.3v232.7c0,12.8,10.4,23.3,23.3,23.3h232.7c12.8,0,23.3-10.4,23.3-23.3v-232.7c0-12.8-10.4-23.3-23.3-23.3h-232.7Z"/>
  <path class="cls-1" d="M162.9,116.4c-12.9,0-23.3-10.4-23.3-23.3V23.3c0-12.9,10.4-23.3,23.3-23.3s23.3,10.4,23.3,23.3v69.8c0,12.9-10.4,23.3-23.3,23.3Z"/>
  <path class="cls-1" d="M349.1,116.4c-12.9,0-23.3-10.4-23.3-23.3V23.3c0-12.9,10.4-23.3,23.3-23.3s23.3,10.4,23.3,23.3v69.8c0,12.9-10.4,23.3-23.3,23.3Z"/>
  <path class="cls-1" d="M349.1,512c-12.9,0-23.3-10.4-23.3-23.3v-69.8c0-12.9,10.4-23.3,23.3-23.3s23.3,10.4,23.3,23.3v69.8c0,12.9-10.4,23.3-23.3,23.3Z"/>
  <path class="cls-1" d="M186.2,512c-12.9,0-23.3-10.4-23.3-23.3v-69.8c0-12.9,10.4-23.3,23.3-23.3s23.3,10.4,23.3,23.3v69.8c0,12.9-10.4,23.3-23.3,23.3Z"/>
  <path class="cls-1" d="M93.1,186.2H23.3c-12.9,0-23.3-10.4-23.3-23.3s10.4-23.3,23.3-23.3h69.8c12.9,0,23.3,10.4,23.3,23.3s-10.4,23.3-23.3,23.3Z"/>
  <path class="cls-1" d="M488.7,186.2h-69.8c-12.9,0-23.3-10.4-23.3-23.3s10.4-23.3,23.3-23.3h69.8c12.9,0,23.3,10.4,23.3,23.3s-10.4,23.3-23.3,23.3Z"/>
  <path class="cls-1" d="M488.7,372.4h-69.8c-12.9,0-23.3-10.4-23.3-23.3s10.4-23.3,23.3-23.3h69.8c12.9,0,23.3,10.4,23.3,23.3s-10.4,23.3-23.3,23.3Z"/>
  <path class="cls-1" d="M93.1,372.4H23.3c-12.9,0-23.3-10.4-23.3-23.3s10.4-23.3,23.3-23.3h69.8c12.9,0,23.3,10.4,23.3,23.3s-10.4,23.3-23.3,23.3Z"/>
</svg>