<?xml version="1.0" encoding="UTF-8"?>
<svg id="Livello_1" data-name="Livello 1" xmlns="http://www.w3.org/2000/svg" version="1.1" viewBox="0 0 512 483.9">
  <defs>
    <style>
      .cls-1 {
        fill: #fff;
        stroke-width: 0px;
      }
    </style>
  </defs>
  <path class="cls-1" d="M316.1,483.9h-120.3c-2.7,0-5.5-.2-8.2-.5-17.5-2.2-33.1-11.1-43.9-25-10.8-13.9-15.6-31.2-13.4-48.7l14.1-112.7c5.5-43.9,43-77.1,87.3-77.1h48.5c44.3,0,81.8,33.1,87.3,77.1l14.1,112.7h0c.3,2.7.5,5.5.5,8.2,0,17.6-6.9,34.2-19.3,46.7-12.4,12.4-29,19.3-46.6,19.3ZM280.3,263.9h-48.5c-22.1,0-40.9,16.6-43.6,38.5l-14.1,112.7c-.7,5.8.9,11.6,4.5,16.2,3.6,4.6,8.8,7.6,14.6,8.3.9.1,1.8.2,2.8.2h120.3c5.9,0,11.4-2.3,15.6-6.4,4.1-4.1,6.4-9.7,6.4-15.5s0-1.8-.2-2.8l-14.1-112.7c-2.7-22-21.5-38.5-43.6-38.5Z"/>
  <path class="cls-1" d="M256,176c-48.5,0-88-39.5-88-88S207.5,0,256,0s88,39.5,88,88-39.5,88-88,88ZM256,44c-24.3,0-44,19.7-44,44s19.7,44,44,44,44-19.7,44-44-19.7-44-44-44Z"/>
  <path class="cls-1" d="M80.1,241.9c-36.4,0-66-29.6-66-66s29.6-66,66-66,66,29.6,66,66-29.6,66-66,66ZM80.1,154c-12.1,0-22,9.9-22,22s9.9,22,22,22,22-9.9,22-22-9.9-22-22-22Z"/>
  <path class="cls-1" d="M431.9,241.9c-36.4,0-66-29.6-66-66s29.6-66,66-66,66,29.6,66,66-29.6,66-66,66ZM431.9,154c-12.1,0-22,9.9-22,22s9.9,22,22,22,22-9.9,22-22-9.9-22-22-22Z"/>
  <path class="cls-1" d="M146,439.9h-80c-3.6,0-7.3-.3-10.9-.9-17.3-2.9-32.6-12.4-42.8-26.7-10.2-14.3-14.3-31.8-11.4-49.2l7.3-44c5.3-31.9,32.7-55.1,65.1-55.1h6.7c12.1,0,22,9.8,22,22s-9.8,22-22,22h-6.7c-10.8,0-19.9,7.7-21.7,18.4l-7.3,44c-1,5.8.4,11.6,3.8,16.4,3.4,4.8,8.5,7.9,14.3,8.9,1.2.2,2.4.3,3.6.3h80c12.1,0,22,9.8,22,22s-9.8,22-22,22Z"/>
  <path class="cls-1" d="M446,439.9h-80c-12.1,0-22-9.8-22-22s9.8-22,22-22h80c1.2,0,2.4-.1,3.6-.3,5.8-1,10.9-4.1,14.3-8.9,3.4-4.8,4.8-10.6,3.8-16.4l-7.3-44c-1.8-10.6-10.9-18.4-21.7-18.4h-6.7c-12.1,0-22-9.8-22-22s9.8-22,22-22h6.7c32.4,0,59.8,23.2,65.1,55.1l7.3,44c2.9,17.4-1.1,34.8-11.4,49.2-10.2,14.3-25.5,23.8-42.9,26.7-3.6.6-7.2.9-10.8.9Z"/>
</svg>