<?xml version="1.0" encoding="UTF-8"?>
<svg id="Livello_1" data-name="Livello 1" xmlns="http://www.w3.org/2000/svg" version="1.1" viewBox="0 0 512 267">
  <defs>
    <style>
      .cls-1 {
        fill: #fff;
        stroke-width: 0px;
      }
    </style>
  </defs>
  <rect class="cls-1" x="248" y=".2" width="263.9" height="33.7" rx="2" ry="2"/>
  <rect class="cls-1" x="248" y="116.9" width="263.9" height="33.7" rx="2" ry="2"/>
  <rect class="cls-1" x="248" y="58.5" width="263.9" height="33.7" rx="2" ry="2"/>
  <rect class="cls-1" x="-.1" y="175.2" width="512" height="33.7" rx="2" ry="2"/>
  <rect class="cls-1" x="-.1" y="233.5" width="512" height="33.7" rx="2" ry="2"/>
  <path class="cls-1" d="M224.6.2H2C.9.2,0,1.1,0,2.2v146.6c0,1.1.9,2,2,2h222.6c1.1,0,2-.9,2-2V2.2c0-1.1-.9-2-2-2ZM63.6,107.9l-12.6,9.2c-.2.1-.2.4-.2.6l4.8,14.9c.1.5-.4.8-.8.6l-12.6-9.2c-.2-.1-.4-.1-.6,0l-12.6,9.2c-.4.3-.9,0-.8-.6l4.8-14.9c0-.2,0-.4-.2-.6l-12.6-9.2c-.4-.3-.2-.9.3-.9h15.6c.2,0,.4-.1.5-.3l4.8-14.9c.1-.5.8-.5,1,0l4.8,14.9c0,.2.3.3.5.3h15.6c.5,0,.7.6.3.9ZM63.6,34.8l-12.6,9.2c-.2.1-.2.4-.2.6l4.8,14.9c.1.5-.4.8-.8.6l-12.6-9.2c-.2-.1-.4-.1-.6,0l-12.6,9.2c-.4.3-.9,0-.8-.6l4.8-14.9c0-.2,0-.4-.2-.6l-12.6-9.2c-.4-.3-.2-.9.3-.9h15.6c.2,0,.4-.1.5-.3l4.8-14.9c.1-.5.8-.5,1,0l4.8,14.9c0,.2.3.3.5.3h15.6c.5,0,.7.6.3.9ZM135,107.8l-12.6,9.2c-.2.1-.2.4-.2.6l4.8,14.9c.1.5-.4.8-.8.6l-12.6-9.2c-.2-.1-.4-.1-.6,0l-12.6,9.2c-.4.3-.9,0-.8-.6l4.8-14.9c0-.2,0-.4-.2-.6l-12.6-9.2c-.4-.3-.2-.9.3-.9h15.6c.2,0,.4-.1.5-.3l4.8-14.9c.1-.5.8-.5,1,0l4.8,14.9c0,.2.3.3.5.3h15.6c.5,0,.7.6.3.9ZM135,34.7l-12.6,9.2c-.2.1-.2.4-.2.6l4.8,14.9c.1.5-.4.8-.8.6l-12.6-9.2c-.2-.1-.4-.1-.6,0l-12.6,9.2c-.4.3-.9,0-.8-.6l4.8-14.9c0-.2,0-.4-.2-.6l-12.6-9.2c-.4-.3-.2-.9.3-.9h15.6c.2,0,.4-.1.5-.3l4.8-14.9c.1-.5.8-.5,1,0l4.8,14.9c0,.2.3.3.5.3h15.6c.5,0,.7.6.3.9ZM207.3,107.8l-12.6,9.2c-.2.1-.2.4-.2.6l4.8,14.9c.1.5-.4.8-.8.6l-12.6-9.2c-.2-.1-.4-.1-.6,0l-12.6,9.2c-.4.3-.9,0-.8-.6l4.8-14.9c0-.2,0-.4-.2-.6l-12.6-9.2c-.4-.3-.2-.9.3-.9h15.6c.2,0,.4-.1.5-.3l4.8-14.9c.1-.5.8-.5,1,0l4.8,14.9c0,.2.3.3.5.3h15.6c.5,0,.7.6.3.9ZM207.3,34.7l-12.6,9.2c-.2.1-.2.4-.2.6l4.8,14.9c.1.5-.4.8-.8.6l-12.6-9.2c-.2-.1-.4-.1-.6,0l-12.6,9.2c-.4.3-.9,0-.8-.6l4.8-14.9c0-.2,0-.4-.2-.6l-12.6-9.2c-.4-.3-.2-.9.3-.9h15.6c.2,0,.4-.1.5-.3l4.8-14.9c.1-.5.8-.5,1,0l4.8,14.9c0,.2.3.3.5.3h15.6c.5,0,.7.6.3.9Z"/>
</svg>